<svg
  xmlns="http://www.w3.org/2000/svg"
  viewBox="0 0 16 11"
  fill="none"
>
  <!-- Red stripes -->
  <rect
    width="16"
    height="11"
    fill="#BF0A30"
  />
  <!-- White stripes -->
  <rect
    y="1.571"
    width="16"
    height="0.786"
    fill="white"
  />
  <rect
    y="3.143"
    width="16"
    height="0.786"
    fill="white"
  />
  <rect
    y="4.714"
    width="16"
    height="0.786"
    fill="white"
  />
  <rect
    y="6.286"
    width="16"
    height="0.786"
    fill="white"
  />
  <rect
    y="7.857"
    width="16"
    height="0.786"
    fill="white"
  />
  <rect
    y="9.429"
    width="16"
    height="0.786"
    fill="white"
  />
  <!-- Blue canton -->
  <rect
    width="6.4"
    height="5.929"
    fill="#002868"
  />
  <!-- Simplified stars pattern -->
  <circle
    cx="0.8"
    cy="0.593"
    r="0.25"
    fill="white"
  />
  <circle
    cx="2.133"
    cy="0.593"
    r="0.25"
    fill="white"
  />
  <circle
    cx="3.467"
    cy="0.593"
    r="0.25"
    fill="white"
  />
  <circle
    cx="4.8"
    cy="0.593"
    r="0.25"
    fill="white"
  />
  <circle
    cx="6.0"
    cy="0.593"
    r="0.25"
    fill="white"
  />
  <circle
    cx="1.467"
    cy="1.186"
    r="0.25"
    fill="white"
  />
  <circle
    cx="2.8"
    cy="1.186"
    r="0.25"
    fill="white"
  />
  <circle
    cx="4.133"
    cy="1.186"
    r="0.25"
    fill="white"
  />
  <circle
    cx="5.467"
    cy="1.186"
    r="0.25"
    fill="white"
  />
  <circle
    cx="0.8"
    cy="1.779"
    r="0.25"
    fill="white"
  />
  <circle
    cx="2.133"
    cy="1.779"
    r="0.25"
    fill="white"
  />
  <circle
    cx="3.467"
    cy="1.779"
    r="0.25"
    fill="white"
  />
  <circle
    cx="4.8"
    cy="1.779"
    r="0.25"
    fill="white"
  />
  <circle
    cx="6.0"
    cy="1.779"
    r="0.25"
    fill="white"
  />
  <circle
    cx="1.467"
    cy="2.371"
    r="0.25"
    fill="white"
  />
  <circle
    cx="2.8"
    cy="2.371"
    r="0.25"
    fill="white"
  />
  <circle
    cx="4.133"
    cy="2.371"
    r="0.25"
    fill="white"
  />
  <circle
    cx="5.467"
    cy="2.371"
    r="0.25"
    fill="white"
  />
  <circle
    cx="0.8"
    cy="2.964"
    r="0.25"
    fill="white"
  />
  <circle
    cx="2.133"
    cy="2.964"
    r="0.25"
    fill="white"
  />
  <circle
    cx="3.467"
    cy="2.964"
    r="0.25"
    fill="white"
  />
  <circle
    cx="4.8"
    cy="2.964"
    r="0.25"
    fill="white"
  />
  <circle
    cx="6.0"
    cy="2.964"
    r="0.25"
    fill="white"
  />
  <circle
    cx="1.467"
    cy="3.557"
    r="0.25"
    fill="white"
  />
  <circle
    cx="2.8"
    cy="3.557"
    r="0.25"
    fill="white"
  />
  <circle
    cx="4.133"
    cy="3.557"
    r="0.25"
    fill="white"
  />
  <circle
    cx="5.467"
    cy="3.557"
    r="0.25"
    fill="white"
  />
  <circle
    cx="0.8"
    cy="4.15"
    r="0.25"
    fill="white"
  />
  <circle
    cx="2.133"
    cy="4.15"
    r="0.25"
    fill="white"
  />
  <circle
    cx="3.467"
    cy="4.15"
    r="0.25"
    fill="white"
  />
  <circle
    cx="4.8"
    cy="4.15"
    r="0.25"
    fill="white"
  />
  <circle
    cx="6.0"
    cy="4.15"
    r="0.25"
    fill="white"
  />
  <circle
    cx="1.467"
    cy="4.743"
    r="0.25"
    fill="white"
  />
  <circle
    cx="2.8"
    cy="4.743"
    r="0.25"
    fill="white"
  />
  <circle
    cx="4.133"
    cy="4.743"
    r="0.25"
    fill="white"
  />
  <circle
    cx="5.467"
    cy="4.743"
    r="0.25"
    fill="white"
  />
  <circle
    cx="0.8"
    cy="5.336"
    r="0.25"
    fill="white"
  />
  <circle
    cx="2.133"
    cy="5.336"
    r="0.25"
    fill="white"
  />
  <circle
    cx="3.467"
    cy="5.336"
    r="0.25"
    fill="white"
  />
  <circle
    cx="4.8"
    cy="5.336"
    r="0.25"
    fill="white"
  />
  <circle
    cx="6.0"
    cy="5.336"
    r="0.25"
    fill="white"
  />
</svg>
